<svg xmlns="http://www.w3.org/2000/svg" width="400" height="400"><g fill-rule="evenodd"><path d="M0 200v200h400V0H0v200M216.2 17.723c.66.37 1.592.673 2.071.675.48.001 1.142.272 1.472.602.33.33.785.6 1.011.6 1.346 0 8.509 6.708 9.079 8.503.15.473.519 1.106.82 1.407.301.301.547.817.547 1.147 0 .33.27.87.6 1.2.33.33.606 1.262.613 2.072.007.809.277 1.82.6 2.247.504.667.587 5.007.587 30.687v29.91l37.7.113c35.006.106 37.786.164 38.9.812.66.383 1.673.698 2.251.7.578.001 1.275.272 1.549.602.274.33.814.6 1.2.6s.926.27 1.2.6c.274.33.748.6 1.053.6 1.127 0 7.517 6.904 8.7 9.4.625 1.32 1.335 2.76 1.576 3.2 1.301 2.37 1.313 14.369.015 15.447-.299.248-.544.772-.544 1.165 0 .899-1.995 4.788-2.457 4.788-.189 0-.343.191-.343.425 0 1.734-9.926 9.175-12.238 9.175-.605 0-1.447.315-1.872.7-.731.661-5.451.706-85.332.81l-84.558.11v31.18l9.7.055c5.335.03 42.73.193 83.1.362 70.516.294 78.354.444 78.707 1.505.088.263.69.478 1.339.478.648 0 1.275.25 1.392.555.117.305.697.654 1.288.776.591.121 1.938 1.041 2.994 2.045 1.056 1.003 2.091 1.824 2.3 1.824.209 0 .38.171.38.381 0 .209.6.974 1.333 1.7.733.725 1.447 1.634 1.587 2.019.14.385.426.7.636.7.209 0 .499.54.644 1.2.145.66.421 1.2.614 1.2.192 0 .459.675.592 1.5.133.825.501 1.978.818 2.562.888 1.636.864 91.201-.024 91.938-.33.274-.6.937-.6 1.474 0 1.281-1.742 4.931-3.003 6.291-.548.592-.997 1.173-.997 1.291 0 .36-2.941 3.344-3.296 3.344-.182 0-.862.543-1.511 1.208-.65.664-1.589 1.383-2.087 1.599-.498.215-1.176.545-1.506.733-4.533 2.587-4.411 2.58-44.6 2.832l-36.4.228-.103 29.936c-.088 25.791-.185 30.054-.7 30.789-.328.469-.597 1.43-.597 2.135 0 .706-.27 1.553-.6 1.883-.33.33-.6.816-.6 1.081 0 .482-1.403 2.955-2.185 3.852-.228.262-.854 1.083-1.39 1.826-.536.742-1.581 1.787-2.323 2.323a53.53 53.53 0 0 0-1.837 1.375c-1.449 1.191-3.101 2.2-3.6 2.2-.312 0-.779.256-1.039.569-.26.313-1.227.693-2.149.845-.922.152-1.9.457-2.174.677-.653.528-9.565.521-10.206-.007-.274-.225-1.34-.535-2.37-.688-1.03-.153-1.97-.53-2.088-.837-.117-.308-.675-.559-1.239-.559-.564 0-1.129-.27-1.255-.6-.127-.33-.455-.6-.73-.6-.545 0-4.326-2.747-4.558-3.311-.079-.192-.727-.879-1.439-1.527-.713-.649-1.797-2.169-2.409-3.379-.612-1.21-1.27-2.297-1.461-2.415-.191-.118-.348-.655-.348-1.193s-.36-1.65-.8-2.471c-.78-1.455-.8-2.256-.8-32.186v-30.695l-37.958-.111c-35.498-.105-38.008-.157-38.732-.812-.425-.385-1.243-.7-1.818-.7s-1.146-.164-1.271-.365c-.124-.201-.989-.741-1.923-1.199-3.476-1.707-10.292-9.313-10.297-11.49-.001-.25-.27-.97-.599-1.6-.328-.63-.598-2.17-.6-3.422-.001-1.252-.182-2.388-.402-2.524-.52-.322-.52-3.278 0-3.6.22-.136.4-1.334.4-2.663 0-2.551.534-4.17 2.67-8.098 1.217-2.235 4.851-5.927 7.53-7.648 2.333-1.499 3.807-2.191 4.667-2.191.479 0 1.218-.315 1.643-.7.731-.661 5.491-.706 86.132-.812l85.358-.113V226.02l-84.558-.11c-79.881-.104-84.601-.149-85.332-.81-.436-.395-1.403-.7-2.218-.7-.795 0-1.546-.164-1.671-.365-.124-.201-1.037-.758-2.028-1.238-.991-.48-2.434-1.486-3.205-2.235-.771-.749-1.545-1.362-1.72-1.362-.175 0-.743-.585-1.263-1.3-.52-.715-1.184-1.444-1.475-1.62-.292-.176-.53-.562-.53-.857 0-.296-.27-.641-.6-.768-.33-.126-.6-.691-.6-1.255s-.265-1.127-.589-1.251c-.324-.125-.695-.884-.824-1.688-.129-.803-.494-1.939-.811-2.523-.876-1.614-.865-91.803.011-92.962.323-.427.593-1.171.6-1.655.013-.87 1.124-3.2 2.633-5.521 1.064-1.636 6.569-7 7.185-7 .273 0 .721-.27.995-.6.274-.33.814-.6 1.2-.6s.926-.27 1.2-.6c.274-.33.971-.601 1.549-.602.578-.002 1.591-.317 2.251-.7 1.114-.648 3.855-.706 38.09-.812l36.891-.114.109-30.686c.102-28.339.163-30.778.808-31.886.383-.66.698-1.701.7-2.313.001-.618.269-1.214.602-1.342.33-.127.6-.535.6-.906 0-.707.906-2.076 2.1-3.173.385-.354.702-.829.704-1.055.002-.226.742-1.041 1.645-1.811s1.931-1.715 2.285-2.1c.354-.385.797-.7.983-.7.187 0 .61-.27.94-.6.33-.33.928-.6 1.329-.6.401 0 .832-.27.959-.6.138-.36.755-.605 1.542-.614.722-.007 2.033-.37 2.913-.806 2.123-1.052 11.243-.954 13.2.143" fill="#1c94c4"/><path d="M205.6 17.467c-.55.115-1.9.449-3 .744-2.831.759-1.198.718 2.075-.052 2.638-.621 7.522-.598 10.125.048.919.228.937.208.22-.244-.806-.509-7.628-.867-9.42-.496m11.4 1.32c3.926.999 10.21 6.225 12.402 10.315.62 1.156 1.206 2.024 1.302 1.928.58-.58-3.443-5.951-6.255-8.351-2.443-2.085-6.488-4.296-7.755-4.238-.709.032-.646.104.306.346m-17.976.626c-.428.323-.597.587-.377.587.22 0 .749-.264 1.177-.587.427-.323.596-.588.376-.588-.22 0-.749.265-1.176.588m-4.08 2.33c-2.29 1.703-4.539 3.857-4.027 3.857.141 0 .905-.649 1.698-1.442.793-.793 2.37-2.053 3.504-2.8 1.135-.747 1.862-1.358 1.616-1.358s-1.502.784-2.791 1.743m-5.741 5.917c-.662.913-1.203 1.843-1.203 2.067 0 .485-.056.553 1.517-1.827 1.547-2.34 1.328-2.507-.314-.24m-2.124 3.914c-.373.632-.661 1.572-.638 2.088.032.733.108.654.349-.36.169-.713.537-1.573.816-1.909.279-.337.428-.692.33-.79-.098-.098-.484.339-.857.971m43.929.626c.169.44.554 1.61.857 2.6l.549 1.8-.22-1.751c-.121-.963-.506-2.133-.856-2.6-.59-.787-.614-.79-.33-.049m-45.259 3.283c-.192.394-.439 14.397-.549 31.117L185 97l-36.4.201c-28.196.155-36.625.315-37.4.706-.947.478-.925.491.4.238.77-.147 17.498-.336 37.174-.419 25.052-.106 35.932-.282 36.3-.587.426-.354.526-6.005.528-29.688.002-19.497.145-29.764.429-30.789.459-1.651.291-2.354-.282-1.179m46.972 31.162c.082 20.032.26 30.091.539 30.428.329.395 8.259.535 37.079.653 20.164.083 37.291.271 38.061.418 1.326.254 1.347.241.4-.238-.78-.395-9.157-.531-38.052-.622l-37.052-.115-.272-28.685c-.15-15.776-.396-29.377-.548-30.223-.152-.847-.221 11.926-.155 28.384m78.291 32.127c5.278 1.266 11.896 6.855 14.945 12.622.464.877.843 1.394.843 1.15 0-3.893-11.752-14.271-15.97-14.103-.969.038-.958.058.182.331m-204.788.641c-.988.747-.339.739.976-.013.58-.332.748-.572.4-.573-.33-.001-.949.263-1.376.586m-3.609 1.976c-4.632 3.176-9.851 10-9.285 12.141.161.608.182.606.224-.022.177-2.65 5.413-9.309 9.333-11.871 1.379-.9 2.328-1.631 2.11-1.623-.219.008-1.29.627-2.382 1.375m224.187 12.065c-.004.741 1.165 3.205 1.182 2.492.009-.36-.253-1.17-.582-1.8-.328-.63-.598-.942-.6-.692m-234.347 2.392c-.28.855-.441 2.634-.357 3.954l.151 2.4.075-2.726c.042-1.5.268-3.085.502-3.522.234-.438.361-.991.282-1.228-.079-.238-.373.267-.653 1.122m235.696 5.354c0 2.53.065 3.565.145 2.3a44.671 44.671 0 0 0 0-4.6c-.08-1.265-.145-.23-.145 2.3m-.851 6.293c-.275.586-.493 1.346-.484 1.687.008.341.283.004.61-.75.708-1.631.595-2.474-.126-.937m-2.047 4.929c-1.54 2.801-5.891 7.373-8.687 9.129-1.081.679-1.817 1.237-1.634 1.241 2.327.054 13.005-11.388 11.776-12.618-.078-.077-.732.934-1.455 2.248M312.8 143.4c-.58.332-.748.572-.4.573.33.001.949-.263 1.376-.586.988-.747.339-.739-.976.013m-6.4 1.42c-.99.177-38.64.334-83.667.35-45.027.017-82.152.139-82.5.273-.648.248-1.015 30.695-.39 32.324.22.575 7.785.624 82.3.534l82.057-.099-81.893-.102-81.892-.102-.219-.899c-.12-.494-.169-7.739-.107-16.099l.111-15.2 84-.2c65.087-.155 84.18-.31 84.8-.688l.8-.488-.8.038c-.44.021-1.61.182-2.6.358m.8 33.939c1.21.168 2.707.515 3.326.773 1.656.688 2.265.565.874-.177-.66-.352-2.37-.699-3.8-.77l-2.6-.13 2.2.304m6.278 1.747c.482.272 1.652.919 2.599 1.439 3.128 1.718 7.411 6.312 9.152 9.818.864 1.74 1.571 2.945 1.571 2.679 0-.47-1.062-2.795-2.208-4.834-1.661-2.956-9.658-9.625-11.513-9.602-.264.003-.084.228.399.5m13.567 16.094c.138.66.386 2.19.551 3.4l.299 2.2.022-2c.012-1.1-.236-2.63-.551-3.4-.526-1.286-.553-1.302-.321-.2m-234.983 6.538c-.065 2.661 1.155 7.578 2.247 9.062l.589.8-.306-.8c-1.477-3.863-1.938-5.636-2.184-8.4l-.284-3.2-.062 2.538M94.8 213.6c0 .22.168.4.373.4s.48.315.61.7c.13.385.975 1.51 1.878 2.5 1.089 1.195 1.285 1.329.582.4a69.795 69.795 0 0 1-2.056-2.9c-1.013-1.523-1.387-1.82-1.387-1.1m5.004 5.6c.799 1.337 6.411 4.8 7.777 4.8.341 0-.519-.539-1.909-1.197-1.391-.658-3.361-1.872-4.378-2.699-1.017-.827-1.688-1.234-1.49-.904M111 224.876c.652.427 16.315.544 84.7.63l83.9.107v32.785l-84.4.102-84.4.103 84.5-.002 84.5-.001v-33.2l-83.6-.223c-45.98-.123-84.14-.359-84.8-.524-1.086-.273-1.124-.252-.4.223m-2.4 34.324c-.136.22-.642.421-1.124.446-.601.032-.671.101-.223.221.359.095 1.259-.091 2-.414 1.095-.478 1.183-.594.471-.62-.482-.018-.988.147-1.124.367m-4.274 1.614c-.811.428-1.589.964-1.729 1.19-.205.332 3.161-1.328 3.77-1.859.475-.414-.751-.013-2.041.669m-5.184 3.696c-1.242 1.149-2.757 2.81-3.368 3.69-.951 1.371-.84 1.302.773-.482 1.036-1.145 2.731-2.809 3.768-3.697 1.037-.889 1.705-1.613 1.485-1.609-.22.004-1.416.948-2.658 2.098m-5.056 6.301c-.707 1.132-2.09 4.891-2.057 5.589.016.33.373-.39.793-1.6.42-1.21 1.055-2.707 1.41-3.328.729-1.273.601-1.857-.146-.661M91.744 282c0 2.09.068 2.945.15 1.9a29.38 29.38 0 0 0 0-3.8c-.082-1.045-.15-.19-.15 1.9m235.771 2.4c-.157 1.21-.384 2.65-.505 3.2-.158.725-.047.63.406-.346.365-.787.574-2.117.504-3.2l-.12-1.854-.285 2.2m-235.5 2.8c-.026 1.089 2.27 6.518 3.364 7.953 2.484 3.259 10.171 9.43 10.873 8.728.084-.083-.743-.639-1.836-1.234-5.547-3.019-9.369-7.58-11.603-13.847-.431-1.21-.791-1.93-.798-1.6m234.069 3.5c-.403 1.347-.39 1.421.133.724.509-.678.822-2.224.45-2.224-.073 0-.335.675-.583 1.5m-1.682 3.404c-2.719 4.899-9.457 9.68-15.802 11.21-.612.148-.545.204.286.24 1.072.045 2.378-.418 5.914-2.099 1.811-.86 6.137-4.239 7.132-5.571.295-.394.849-1.024 1.232-1.4.896-.88 2.58-3.673 2.353-3.901-.096-.096-.598.589-1.115 1.521M108.2 304.71c1.45.611 5.123.694 39.2.882l37.6.208.2 30.8c.16 24.645.306 30.96.73 31.6l.53.8-.33-.8c-.181-.44-.38-14.558-.442-31.374-.078-21.363-.244-30.732-.549-31.1-.355-.428-7.244-.526-36.924-.526-31.17 0-36.774-.087-38.451-.596-2.627-.796-3.555-.734-1.564.106m153.513 1.19c-26.791.101-28.106.139-28.481.84-.399.746-.828 60.19-.432 59.794.11-.11.292-13.46.404-29.667.113-16.207.349-29.692.524-29.967.251-.393 7.718-.506 34.996-.53 19.072-.016 35.486-.173 36.476-.35 1.128-.2-1.41-.302-6.8-.273-4.73.026-21.239.095-36.687.153m-30.443 64.706c-.275.604-.418 1.18-.317 1.28.271.272 1.122-1.462.958-1.954-.078-.232-.366.071-.641.674m-44.47.785c0 2.139 7.955 11.395 9.8 11.402.22.001-.067-.312-.638-.696-2.986-2.007-6.16-5.607-7.754-8.797-.929-1.857-1.408-2.507-1.408-1.909m43.256 2.064c-.48 1.072-.47 1.103.162.484.371-.363.602-.879.513-1.145-.089-.267-.392.031-.675.661m-1.789 2.988c-1.336 1.86-6.45 6.357-7.228 6.357-.298 0-.765.27-1.039.6-1.07 1.289 1.02.131 4.776-2.646 1.246-.921 5.031-5.48 4.768-5.743-.079-.079-.654.565-1.277 1.432m-30.915 6.678c.421.683 4.507 2.483 5.598 2.466.467-.008-.205-.377-1.494-.82-1.289-.444-2.812-1.113-3.385-1.487-.634-.415-.915-.477-.719-.159m19.248 1.75c-1.91.73-1.933.756-.505.573.823-.106 1.898-.474 2.389-.818 1.122-.786.655-.725-1.884.245m-11.6 1.173c1.56.34 7.335.351 8.523.016.508-.143-1.472-.264-4.4-.269-2.928-.005-4.783.109-4.123.253" fill="#77bdd9"/><path d="M203 17.616c-1.4.725-1.45.794-.4.554 3.324-.762 4.613-.936 7-.943 1.43-.004 3.32.18 4.2.41 3.425.896 3.737.911 2.4.122-1.962-1.158-11.051-1.257-13.2-.143M198.545 19c-.127.33-.558.6-.959.6-.401 0-.999.27-1.329.6-.33.33-.753.6-.94.6-.186 0-.629.315-.983.7-.354.385-1.382 1.33-2.285 2.1-.903.77-1.643 1.585-1.645 1.811-.002.226-.319.701-.704 1.055-1.135 1.043-2.1 2.454-2.1 3.071 0 .316-.29.787-.643 1.045-.354.259-.577.818-.495 1.242.103.536.567-.071 1.523-1.995 1.933-3.886 6.082-8.002 10.015-9.937 2.382-1.171 2.771-1.477 1.887-1.483-.626-.005-1.213.253-1.342.591m20.192.041c.503.352 1.033.522 1.177.378.321-.321-.693-1.004-1.503-1.013-.38-.004-.264.222.326.635m3.07 1.624c4.712 3.151 8.527 8.078 10.325 13.335.112.33.219.118.236-.471.018-.59-.238-1.342-.568-1.672-.33-.33-.6-.87-.6-1.2 0-.33-.246-.846-.547-1.147-.301-.301-.67-.934-.82-1.407-.588-1.851-7.741-8.503-9.144-8.503-.261 0 .242.479 1.118 1.065M185.6 34.305c-.516.941-.615 5.401-.71 31.781l-.109 30.686-36.891.114c-34.235.106-36.976.164-38.09.812-1.413.821-.46.972 1.274.202.863-.383 9.635-.547 37.526-.7L185 97l.2-30.4c.158-24.075.309-30.592.725-31.321.289-.506.469-1.179.4-1.495-.08-.369-.339-.183-.725.521m47.043 2.095c.166.55.411 8.11.545 16.8l.242 15.8.085-16.024c.075-14.067.008-16.118-.545-16.8-.605-.746-.618-.737-.327.224M270.6 97.183c28.501.166 37.463.334 38.326.717 1.734.77 2.687.619 1.274-.202-1.118-.65-3.794-.699-39-.715l-37.8-.016 37.2.216M106 99c-.274.33-.814.6-1.2.6s-.926.27-1.2.6c-.274.33-.722.6-.995.6-.616 0-6.121 5.364-7.185 7-1.509 2.321-2.62 4.651-2.633 5.521-.007.484-.277 1.228-.6 1.655-.926 1.225-.882 91.709.046 92.848.623.765.627.764.3-.024-.717-1.724-.634-90.178.087-92.6 2.297-7.714 8.299-14.223 15.18-16.46.682-.222.644-.266-.251-.3-.578-.022-1.275.23-1.549.56m206.946.002c1.444.754 1.681.753 1.054-.002-.274-.33-.881-.599-1.349-.598-.738.003-.698.083.295.6m3.204 1.516c.853.485 2.349 1.557 3.325 2.382 2.46 2.08 2.69 1.882.347-.3-1.063-.99-2.156-1.8-2.429-1.8-.272 0-.719-.27-.993-.6-.274-.33-.791-.592-1.149-.582-.358.009.047.414.899.9m7.009 6.13c1.608 1.827 3.641 5.089 3.641 5.842 0 .214.258.956.573 1.65.315.693.654 1.62.753 2.06.129.57.195.473.228-.338.025-.626-.201-1.616-.503-2.2a167.457 167.457 0 0 1-1.609-3.262c-1.095-2.274-3.668-5.6-4.332-5.6-.208 0 .354.832 1.249 1.848m5.307 14.552c.014 1.991.046 2.07.338.834.177-.751.17-1.741-.016-2.2-.242-.597-.333-.21-.322 1.366m-.515 5.4c-.131.66-.379 1.56-.551 2-.291.742-.264.753.373.156.456-.428.641-1.098.551-2l-.135-1.356-.238 1.2m-2.124 5.562c-2.141 4.45-8.895 10.345-13.627 11.896-.732.24-.721.266.13.302 2.097.09 12.07-7.458 12.07-9.135 0-.234.159-.425.352-.425.45 0 2.589-4.199 2.394-4.7-.08-.206-.674.721-1.319 2.062m-16.368 12.512c-.151.151-1.036.398-1.966.55l-1.693.276 2.051.05c1.385.034 2.213-.145 2.549-.55.524-.632-.337-.93-.941-.326m-169.192 1.193c-.378.377-.322 31.028.058 31.625.245.386 18.265.515 83.672.6 45.848.059 82.829-.006 82.181-.145-.648-.139-25.928-.274-56.178-.3-30.25-.026-67.285-.167-82.3-.313l-27.3-.265v-31.067l82.7-.102 82.7-.102-82.633-.099c-45.449-.054-82.754.021-82.9.168M309.8 178.689c.44.109 1.029.383 1.31.611.28.228.635.289.788.135.418-.418-.76-1.028-1.898-.982-.824.033-.859.074-.2.236m3.2 1.182c.44.118 1.054.421 1.365.672.444.359.523.329.369-.143-.108-.33-.722-.632-1.365-.672-.734-.045-.872.008-.369.143m3.85 2.075c.993.63 3.099 2.471 4.678 4.092 1.58 1.621 2.872 2.788 2.872 2.595 0-.194-.63-.964-1.4-1.712-.77-.748-1.4-1.531-1.4-1.74 0-.21-.186-.381-.413-.381-.228 0-.903-.495-1.5-1.101-1.693-1.714-3.335-2.899-4.019-2.899-.344 0 .188.516 1.182 1.146m7.55 7.643c0 .2.175.472.389.604.536.331 1.473 2.38 2.29 5.007.993 3.188 1.299 89.921.326 92.249-.333.797-.605 1.794-.605 2.216 0 .422-.731 2.155-1.624 3.851-.893 1.696-1.253 2.634-.8 2.084 1.19-1.444 2.824-4.988 2.824-6.126 0-.537.27-1.2.6-1.474.888-.737.912-90.302.024-91.938-.317-.584-.685-1.737-.818-2.562-.133-.825-.4-1.5-.592-1.5-.193 0-.466-.525-.607-1.167-.233-1.063-1.407-2.101-1.407-1.244M92.842 209.4c-.052 1.335.402 2.531 1.054 2.781.463.178.512.11.197-.272-.232-.28-.601-1.139-.821-1.909-.23-.806-.413-1.061-.43-.6m1.604 4.113c-.025.501.224 1.016.554 1.142.33.127.6.472.6.768 0 .295.238.681.53.857.291.176.955.905 1.475 1.62.52.715 1.088 1.3 1.263 1.3.175 0 .949.613 1.72 1.362.771.749 2.214 1.755 3.205 2.235.991.48 1.904 1.037 2.028 1.238.125.201.801.344 1.503.318 1.174-.044 1.196-.068.276-.303-3.451-.882-11.029-6.821-11.799-9.247-.14-.442-.41-.803-.599-.803s-.426-.315-.526-.7c-.136-.52-.195-.465-.23.213m15.103 11.418c.395.482 1.123.655 2.6.619l2.051-.05-1.6-.311c-.88-.171-2.05-.45-2.6-.62-.9-.277-.945-.241-.451.362m45.919.969c22.698.057 59.958.057 82.8 0 22.843-.057 4.272-.104-41.268-.104s-64.229.047-41.532.104m-.168 32.4c22.825.057 60.175.057 83 0 22.825-.057 4.15-.104-41.5-.104s-64.325.047-41.5.104m-47.3.7c-.535.644-.011.842.62.234.209-.202.83-.447 1.38-.546.87-.156.837-.186-.251-.234-.688-.029-1.475.216-1.749.546m-3.8 1.333c-2.929 1.676-3.855 2.357-6 4.41-2.6 2.487-3.616 3.871-5.037 6.857-1.284 2.7-1.559 3.657-1.51 5.26l.054 1.74.289-1.8c.438-2.72 1.407-4.996 3.414-8.016 2.396-3.603 5.107-5.913 9.59-8.169 1.146-.577 1.658-.999 1.2-.988-.44.01-1.34.328-2 .706m-13.133 19.934c-.419.418-.312 3.258.133 3.533.247.152.4-.529.4-1.776 0-2.052-.056-2.235-.533-1.757m.586 6.733c-.027.88.221 2.116.549 2.746.329.63.598 1.35.599 1.6.005 2.177 6.821 9.783 10.297 11.49.934.458 1.799.998 1.923 1.199.125.201.619.365 1.099.365.613 0 .278-.314-1.123-1.052-3.696-1.948-6.749-4.568-9.725-8.348-1.082-1.375-2.847-5.684-3.276-8l-.296-1.6-.047 1.6m231.179 9.638c-.018.24-.788 1.185-1.711 2.1-.923.914-1.5 1.662-1.282 1.662.675 0 3.44-3.17 3.226-3.7-.116-.287-.215-.314-.233-.062m-4.83 4.76c-.514.547-1.75 1.39-2.747 1.872-.997.483-1.587.953-1.311 1.045.276.092.821-.121 1.211-.474.389-.353.886-.641 1.104-.641.535 0 3.132-2.342 2.878-2.596-.11-.11-.621.247-1.135.794M108 305c.274.33.971.593 1.549.584 1.006-.015.994-.04-.295-.6-1.691-.734-1.874-.731-1.254.016m203.2 0c-.884.505-.907.572-.2.573.44.001 1.149-.263 1.576-.586 1.031-.779-.007-.77-1.376.013m-163.4.899 37 .105v30.638c0 27.963.059 30.762.678 32.065.372.785.744 1.227.825.983.082-.245-.088-.861-.377-1.368-.417-.731-.567-7.297-.726-31.722l-.2-30.8-37.1-.003-37.1-.003 37 .105m157.4.121c-.99.177-17.404.334-36.476.35-19.072.017-34.76.165-34.862.33-.29.468 72.434-.104 74.538-.587l1.8-.413h-1.6c-.88 0-2.41.144-3.4.32M233.17 340c-.127 14.41-.371 26.74-.542 27.4-.306 1.178-.3 1.184.333.328.58-.784.634-3.524.542-27.4L233.4 313.8l-.23 26.2M232 369.638c0 .461-.256 1.316-.569 1.9a24.357 24.357 0 0 0-.815 1.662c-.952 2.311-4.1 6.213-6.439 7.981-6.198 4.684-11.337 5.84-20.777 4.673-.66-.082-.84-.065-.4.037.44.102 1.023.369 1.297.593.642.528 9.554.534 10.206.007.274-.22 1.252-.525 2.174-.677.922-.152 1.889-.532 2.149-.845.26-.313.727-.569 1.039-.569.499 0 2.151-1.009 3.6-2.2a53.53 53.53 0 0 1 1.837-1.375c.742-.536 1.787-1.581 2.323-2.323.536-.743 1.162-1.564 1.39-1.826.782-.897 2.185-3.37 2.185-3.852 0-.265.27-.751.6-1.081.547-.547.872-2.943.4-2.943-.11 0-.2.377-.2.838m-45.598 1.813c-.001.468.268 1.075.598 1.349.755.627.756.39.002-1.054-.517-.993-.597-1.033-.6-.295m1.206 2.278c-.016.673 2.029 3.771 3.144 4.766.636.566 1.222 1.19 1.302 1.385.234.57 4.011 3.32 4.561 3.32.275 0 .603.27.73.6.126.33.53.6.896.6.773 0-.439-1.014-2.403-2.011-1.565-.794-5.675-4.966-7.083-7.189-.627-.99-1.143-1.652-1.147-1.471m12.244 11.262c.128.335.604.609 1.057.609.924 0 .875-.092-.4-.755-.749-.39-.854-.366-.657.146" fill="#53acd3"/><path d="M203.6 18.352c-8.657 1.911-15.158 8.308-17.247 16.973-.702 2.914-.753 5.1-.753 32.22 0 22.096-.115 29.21-.48 29.575-.366.366-8.651.48-34.85.48-38.767 0-39.462.042-45.07 2.736-3.873 1.86-8.417 6.319-10.273 10.083-2.912 5.902-2.727 2.436-2.727 51.181v43.8l.866 2.6c2.359 7.079 6.027 11.505 12.075 14.57 5.013 2.54-.897 2.371 91.059 2.611l83.6.219v33.2l-84.8.215c-76.412.194-85 .278-86.825.858-19.566 6.213-22.112 32.212-4.185 42.728 4.872 2.858 3.626 2.779 44.23 2.79 27.783.007 36.534.123 36.9.489.365.365.48 7.59.48 30.074 0 36.562.069 36.955 7.743 44.287 6.272 5.991 21.409 7.906 26.657 3.372.33-.285.992-.638 1.472-.784 2.117-.644 7.248-6.344 8.866-9.85 2.377-5.15 2.462-6.451 2.462-37.669 0-18.235.14-27.824.414-28.336.403-.753 1.14-.775 26.7-.809 36.411-.048 48.751-.417 51.843-1.549 7.324-2.684 13.144-9.012 15.145-16.467l.898-3.349v-42.4c0-47.351.112-45.319-2.813-50.971-1.476-2.853-6.047-7.674-8.587-9.057-.77-.42-1.67-.96-2-1.201-.33-.241-1.86-.873-3.4-1.405l-2.8-.966-83.981-.108c-65.906-.085-84.049-.214-84.294-.6-.678-1.067-.383-32.184.308-32.449.348-.134 37.396-.243 82.329-.243 91.246 0 86.29.146 92.193-2.721 4.765-2.313 12.045-10.412 12.045-13.398 0-.324.269-1.105.598-1.735.983-1.886.822-9.628-.27-12.918-1.877-5.658-7.001-11.512-12.328-14.085-5.61-2.709-6.185-2.743-45.901-2.743-28.229 0-35.286-.102-35.629-.515-.292-.352-.475-9.962-.579-30.3-.165-32.474-.076-31.237-2.613-36.385-4.763-9.665-15.38-14.496-26.478-12.048m10.668.448c1.585.239 3.643.87 4.6 1.41.953.537 2.14 1.156 2.638 1.376 1.532.675 7.006 6.478 7.461 7.909.145.458.527 1.051.848 1.318.322.267.585.873.585 1.347s.315 1.307.7 1.851c.649.918.709 3.219.822 31.847.12 30.168.141 30.875.915 31.575.745.674 3.042.734 38.478 1.004 37.228.284 39.324.357 40.874 1.421.434.298 1.087.542 1.451.542.364 0 .886.27 1.16.6.274.33.816.6 1.204.6 1.144 0 7.405 6.338 8.579 8.685.574 1.146 1.218 2.192 1.43 2.323.213.132.387.734.387 1.339s.264 1.449.587 1.877c.837 1.106.837 9.646 0 10.752-.323.428-.587 1.299-.587 1.937 0 .639-.36 1.618-.8 2.178-.44.559-.8 1.263-.8 1.563 0 .3-.18.546-.4.546-.22 0-.4.254-.4.564 0 .309-1.498 2.064-3.329 3.9-3.056 3.062-4.096 3.768-8.471 5.752-2.919 1.324-8.149 1.42-90.4 1.654-53.309.152-82.175.373-82.5.631-.817.649-.716 32.422.105 33.103.481.399 18.008.54 84.7.683 71.418.152 84.285.265 85.355.746.694.312 1.707.567 2.251.567.545 0 1.215.27 1.489.6.274.33.728.6 1.009.6 1.554 0 8.937 6.74 9.571 8.738.151.474.442.862.647.862.205 0 .373.213.373.474 0 .26.346 1.205.769 2.1 1.25 2.642 1.303 4.261 1.504 45.826.194 40.369.019 47.34-1.264 50.2-1.723 3.839-2.517 5.158-4.257 7.073-1.063 1.17-1.937 2.262-1.942 2.427-.006.165-.216.3-.469.3-.252 0-1.227.63-2.167 1.4-.94.77-1.971 1.4-2.292 1.4-.321 0-.792.251-1.047.558-.255.307-1.132.683-1.949.836-.817.153-1.739.486-2.047.742-.415.343-10.26.49-37.8.565-20.482.056-37.621.188-38.088.295-1.689.385-1.728 1.084-1.842 32.804-.098 27.459-.173 30.516-.774 31.6-.365.66-1.153 2.238-1.751 3.508-.598 1.269-1.511 2.709-2.029 3.2-.517.49-.944 1.036-.948 1.211-.008.359-1.491 1.775-2.809 2.681-.48.33-1.243.915-1.697 1.3-.453.385-1.072.7-1.375.7-.303 0-.648.252-.766.561-.119.308-.878.684-1.688.835-.809.152-1.725.484-2.033.74-.976.806-12.764.607-14.239-.241-.66-.38-1.605-.691-2.1-.693-.495-.001-.9-.18-.9-.397 0-.217-.635-.66-1.411-.984-1.698-.709-7.788-6.552-7.789-7.472 0-.358-.27-.875-.6-1.149-.33-.274-.601-.701-.602-.949-.002-.248-.279-.981-.617-1.628-1.342-2.574-1.505-5.902-1.743-35.703-.157-19.599-.379-29.821-.652-30.094-.277-.277-12.522-.458-37-.549-37.752-.14-40.528-.257-42.046-1.777-.275-.275-.736-.5-1.024-.5-1.339 0-7.641-5.36-9.205-7.828-1.26-1.991-2.512-4.721-2.524-5.505-.007-.477-.277-1.216-.6-1.643-.837-1.108-.837-9.74 0-10.848.323-.427.593-1.206.6-1.732.012-.898 1.325-3.978 2.213-5.19 1.202-1.642 6.143-6.466 7-6.834.55-.237 1.63-.812 2.4-1.279 3.622-2.195-.849-2.085 90.161-2.22 61.521-.091 84.107-.245 84.505-.575.444-.369.524-3.468.438-17.099L280.2 225l-80.8-.281c-88.265-.307-89.105-.328-93.4-2.414-4.191-2.035-7.868-5.209-9.46-8.165-.397-.737-.861-1.34-1.031-1.34-.17 0-.31-.225-.311-.5-.002-.275-.289-1.04-.64-1.7-1.395-2.63-1.487-5.243-1.653-47-.196-49.122-.271-47.896 3.334-54.493.902-1.65 6.956-7.507 7.759-7.507.387 0 .912-.251 1.167-.558.255-.307 1.074-.673 1.82-.813.746-.14 1.415-.43 1.487-.644.275-.825 10.09-1.141 42.724-1.375 21.894-.156 33.938-.384 34.2-.646.26-.26.489-10.812.642-29.684.158-19.416.394-30.137.7-31.824.469-2.579 2.006-6.456 2.56-6.456.166 0 .302-.187.302-.416 0-.528 1.638-2.88 2.3-3.304.275-.176.5-.581.5-.9 0-.319.225-.585.5-.591.275-.006 1.03-.552 1.679-1.212.648-.661 1.593-1.305 2.1-1.433.506-.127.921-.377.921-.556 0-.179.675-.543 1.5-.809s1.686-.629 1.913-.808c.227-.178 1.92-.513 3.763-.744 1.843-.231 3.457-.529 3.587-.661.131-.132.867-.141 1.637-.02.77.122 2.691.416 4.268.654" fill="#b0d8e9"/><path d="M208.363 18.166c-.13.132-1.744.43-3.587.661-1.843.231-3.536.566-3.763.744-.227.179-1.088.542-1.913.808s-1.5.63-1.5.809c0 .179-.415.429-.921.556-.507.128-1.452.772-2.1 1.433-.649.66-1.404 1.206-1.679 1.212-.275.006-.5.272-.5.591 0 .319-.225.724-.5.9-.662.424-2.3 2.776-2.3 3.304 0 .229-.136.416-.302.416-.554 0-2.091 3.877-2.56 6.456-.306 1.687-.542 12.408-.7 31.824-.153 18.872-.382 29.424-.642 29.684-.262.262-12.306.49-34.2.646-32.634.234-42.449.55-42.724 1.375-.072.214-.741.504-1.487.644-.746.14-1.565.506-1.82.813-.255.307-.78.558-1.167.558-.803 0-6.857 5.857-7.759 7.507-3.605 6.597-3.53 5.371-3.334 54.493.166 41.757.258 44.37 1.653 47 .351.66.638 1.425.64 1.7.001.275.141.5.311.5s.634.603 1.031 1.34c1.592 2.956 5.269 6.13 9.46 8.165 4.295 2.086 5.135 2.107 93.4 2.414l80.8.281.104 16.647c.086 13.631.006 16.73-.438 17.099-.398.33-22.984.484-84.505.575-91.01.135-86.539.025-90.161 2.22-.77.467-1.85 1.042-2.4 1.279-.857.368-5.798 5.192-7 6.834-.888 1.212-2.201 4.292-2.213 5.19-.007.526-.277 1.305-.6 1.732-.837 1.108-.837 9.74 0 10.848.323.427.593 1.166.6 1.643.012.784 1.264 3.514 2.524 5.505 1.564 2.468 7.866 7.828 9.205 7.828.288 0 .749.225 1.024.5 1.518 1.52 4.294 1.637 42.046 1.777 24.478.091 36.723.272 37 .549.273.273.495 10.495.652 30.094.238 29.801.401 33.129 1.743 35.703.338.647.615 1.38.617 1.628.001.248.272.675.602.949.33.274.6.791.6 1.149.001.92 6.091 6.763 7.789 7.472.776.324 1.411.767 1.411.984 0 .217.405.396.9.397.495.002 1.44.313 2.1.693 1.475.848 13.263 1.047 14.239.241.308-.256 1.224-.588 2.033-.74.81-.151 1.569-.527 1.688-.835.118-.309.463-.561.766-.561s.922-.315 1.375-.7c.454-.385 1.217-.97 1.697-1.3 1.318-.906 2.801-2.322 2.809-2.681.004-.175.431-.721.948-1.211.518-.491 1.431-1.931 2.029-3.2.598-1.27 1.386-2.848 1.751-3.508.601-1.084.676-4.141.774-31.6.114-31.72.153-32.419 1.842-32.804.467-.107 17.606-.239 38.088-.295 27.54-.075 37.385-.222 37.8-.565.308-.256 1.23-.589 2.047-.742.817-.153 1.694-.529 1.949-.836.255-.307.726-.558 1.047-.558.321 0 1.352-.63 2.292-1.4.94-.77 1.915-1.4 2.167-1.4.253 0 .463-.135.469-.3.005-.165.879-1.257 1.942-2.427 1.74-1.915 2.534-3.234 4.257-7.073 1.283-2.86 1.458-9.831 1.264-50.2-.201-41.565-.254-43.184-1.504-45.826-.423-.895-.769-1.84-.769-2.1 0-.261-.168-.474-.373-.474s-.496-.388-.647-.862c-.634-1.998-8.017-8.738-9.571-8.738-.281 0-.735-.27-1.009-.6-.274-.33-.944-.6-1.489-.6-.544 0-1.557-.255-2.251-.567-1.07-.481-13.937-.594-85.355-.746-66.692-.143-84.219-.284-84.7-.683-.821-.681-.922-32.454-.105-33.103.325-.258 29.191-.479 82.5-.631 82.251-.234 87.481-.33 90.4-1.654 4.375-1.984 5.415-2.69 8.471-5.752 1.831-1.836 3.329-3.591 3.329-3.9 0-.31.18-.564.4-.564.22 0 .4-.246.4-.546 0-.3.36-1.004.8-1.563.44-.56.8-1.539.8-2.178 0-.638.264-1.509.587-1.937.837-1.106.837-9.646 0-10.752-.323-.428-.587-1.272-.587-1.877s-.174-1.207-.387-1.339c-.212-.131-.856-1.177-1.43-2.323-1.174-2.347-7.435-8.685-8.579-8.685-.388 0-.93-.27-1.204-.6-.274-.33-.796-.6-1.16-.6-.364 0-1.017-.244-1.451-.542-1.55-1.064-3.646-1.137-40.874-1.421-35.436-.27-37.733-.33-38.478-1.004-.774-.7-.795-1.407-.915-31.575-.113-28.628-.173-30.929-.822-31.847-.385-.544-.7-1.377-.7-1.851s-.263-1.08-.585-1.347c-.321-.267-.703-.86-.848-1.318-.455-1.431-5.929-7.234-7.461-7.909-.498-.22-1.685-.839-2.638-1.376-.957-.54-3.015-1.171-4.6-1.41a804.377 804.377 0 0 1-4.268-.654c-.77-.121-1.506-.112-1.637.02" fill="#fbfbfb"/><path d="M0 200v200h400V0H0v200M216.2 17.723c.66.37 1.592.673 2.071.675.48.001 1.142.272 1.472.602.33.33.785.6 1.011.6 1.346 0 8.509 6.708 9.079 8.503.15.473.519 1.106.82 1.407.301.301.547.817.547 1.147 0 .33.27.87.6 1.2.33.33.606 1.262.613 2.072.007.809.277 1.82.6 2.247.504.667.587 5.007.587 30.687v29.91l37.7.113c35.006.106 37.786.164 38.9.812.66.383 1.673.698 2.251.7.578.001 1.275.272 1.549.602.274.33.814.6 1.2.6s.926.27 1.2.6c.274.33.748.6 1.053.6 1.127 0 7.517 6.904 8.7 9.4.625 1.32 1.335 2.76 1.576 3.2 1.301 2.37 1.313 14.369.015 15.447-.299.248-.544.772-.544 1.165 0 .899-1.995 4.788-2.457 4.788-.189 0-.343.191-.343.425 0 1.734-9.926 9.175-12.238 9.175-.605 0-1.447.315-1.872.7-.731.661-5.451.706-85.332.81l-84.558.11v31.18l9.7.055c5.335.03 42.73.193 83.1.362 70.516.294 78.354.444 78.707 1.505.088.263.69.478 1.339.478.648 0 1.275.25 1.392.555.117.305.697.654 1.288.776.591.121 1.938 1.041 2.994 2.045 1.056 1.003 2.091 1.824 2.3 1.824.209 0 .38.171.38.381 0 .209.6.974 1.333 1.7.733.725 1.447 1.634 1.587 2.019.14.385.426.7.636.7.209 0 .499.54.644 1.2.145.66.421 1.2.614 1.2.192 0 .459.675.592 1.5.133.825.501 1.978.818 2.562.888 1.636.864 91.201-.024 91.938-.33.274-.6.937-.6 1.474 0 1.281-1.742 4.931-3.003 6.291-.548.592-.997 1.173-.997 1.291 0 .36-2.941 3.344-3.296 3.344-.182 0-.862.543-1.511 1.208-.65.664-1.589 1.383-2.087 1.599-.498.215-1.176.545-1.506.733-4.533 2.587-4.411 2.58-44.6 2.832l-36.4.228-.103 29.936c-.088 25.791-.185 30.054-.7 30.789-.328.469-.597 1.43-.597 2.135 0 .706-.27 1.553-.6 1.883-.33.33-.6.816-.6 1.081 0 .482-1.403 2.955-2.185 3.852-.228.262-.854 1.083-1.39 1.826-.536.742-1.581 1.787-2.323 2.323a53.53 53.53 0 0 0-1.837 1.375c-1.449 1.191-3.101 2.2-3.6 2.2-.312 0-.779.256-1.039.569-.26.313-1.227.693-2.149.845-.922.152-1.9.457-2.174.677-.653.528-9.565.521-10.206-.007-.274-.225-1.34-.535-2.37-.688-1.03-.153-1.97-.53-2.088-.837-.117-.308-.675-.559-1.239-.559-.564 0-1.129-.27-1.255-.6-.127-.33-.455-.6-.73-.6-.545 0-4.326-2.747-4.558-3.311-.079-.192-.727-.879-1.439-1.527-.713-.649-1.797-2.169-2.409-3.379-.612-1.21-1.27-2.297-1.461-2.415-.191-.118-.348-.655-.348-1.193s-.36-1.65-.8-2.471c-.78-1.455-.8-2.256-.8-32.186v-30.695l-37.958-.111c-35.498-.105-38.008-.157-38.732-.812-.425-.385-1.243-.7-1.818-.7s-1.146-.164-1.271-.365c-.124-.201-.989-.741-1.923-1.199-3.476-1.707-10.292-9.313-10.297-11.49-.001-.25-.27-.97-.599-1.6-.328-.63-.598-2.17-.6-3.422-.001-1.252-.182-2.388-.402-2.524-.52-.322-.52-3.278 0-3.6.22-.136.4-1.334.4-2.663 0-2.551.534-4.17 2.67-8.098 1.217-2.235 4.851-5.927 7.53-7.648 2.333-1.499 3.807-2.191 4.667-2.191.479 0 1.218-.315 1.643-.7.731-.661 5.491-.706 86.132-.812l85.358-.113V226.02l-84.558-.11c-79.881-.104-84.601-.149-85.332-.81-.436-.395-1.403-.7-2.218-.7-.795 0-1.546-.164-1.671-.365-.124-.201-1.037-.758-2.028-1.238-.991-.48-2.434-1.486-3.205-2.235-.771-.749-1.545-1.362-1.72-1.362-.175 0-.743-.585-1.263-1.3-.52-.715-1.184-1.444-1.475-1.62-.292-.176-.53-.562-.53-.857 0-.296-.27-.641-.6-.768-.33-.126-.6-.691-.6-1.255s-.265-1.127-.589-1.251c-.324-.125-.695-.884-.824-1.688-.129-.803-.494-1.939-.811-2.523-.876-1.614-.865-91.803.011-92.962.323-.427.593-1.171.6-1.655.013-.87 1.124-3.2 2.633-5.521 1.064-1.636 6.569-7 7.185-7 .273 0 .721-.27.995-.6.274-.33.814-.6 1.2-.6s.926-.27 1.2-.6c.274-.33.971-.601 1.549-.602.578-.002 1.591-.317 2.251-.7 1.114-.648 3.855-.706 38.09-.812l36.891-.114.109-30.686c.102-28.339.163-30.778.808-31.886.383-.66.698-1.701.7-2.313.001-.618.269-1.214.602-1.342.33-.127.6-.535.6-.906 0-.707.906-2.076 2.1-3.173.385-.354.702-.829.704-1.055.002-.226.742-1.041 1.645-1.811s1.931-1.715 2.285-2.1c.354-.385.797-.7.983-.7.187 0 .61-.27.94-.6.33-.33.928-.6 1.329-.6.401 0 .832-.27.959-.6.138-.36.755-.605 1.542-.614.722-.007 2.033-.37 2.913-.806 2.123-1.052 11.243-.954 13.2.143" fill="#1c94c4"/><path d="M205.6 17.467c-.55.115-1.9.449-3 .744-2.831.759-1.198.718 2.075-.052 2.638-.621 7.522-.598 10.125.048.919.228.937.208.22-.244-.806-.509-7.628-.867-9.42-.496m11.4 1.32c3.926.999 10.21 6.225 12.402 10.315.62 1.156 1.206 2.024 1.302 1.928.58-.58-3.443-5.951-6.255-8.351-2.443-2.085-6.488-4.296-7.755-4.238-.709.032-.646.104.306.346m-17.976.626c-.428.323-.597.587-.377.587.22 0 .749-.264 1.177-.587.427-.323.596-.588.376-.588-.22 0-.749.265-1.176.588m-4.08 2.33c-2.29 1.703-4.539 3.857-4.027 3.857.141 0 .905-.649 1.698-1.442.793-.793 2.37-2.053 3.504-2.8 1.135-.747 1.862-1.358 1.616-1.358s-1.502.784-2.791 1.743m-5.741 5.917c-.662.913-1.203 1.843-1.203 2.067 0 .485-.056.553 1.517-1.827 1.547-2.34 1.328-2.507-.314-.24m-2.124 3.914c-.373.632-.661 1.572-.638 2.088.032.733.108.654.349-.36.169-.713.537-1.573.816-1.909.279-.337.428-.692.33-.79-.098-.098-.484.339-.857.971m43.929.626c.169.44.554 1.61.857 2.6l.549 1.8-.22-1.751c-.121-.963-.506-2.133-.856-2.6-.59-.787-.614-.79-.33-.049m-45.259 3.283c-.192.394-.439 14.397-.549 31.117L185 97l-36.4.201c-28.196.155-36.625.315-37.4.706-.947.478-.925.491.4.238.77-.147 17.498-.336 37.174-.419 25.052-.106 35.932-.282 36.3-.587.426-.354.526-6.005.528-29.688.002-19.497.145-29.764.429-30.789.459-1.651.291-2.354-.282-1.179m46.972 31.162c.082 20.032.26 30.091.539 30.428.329.395 8.259.535 37.079.653 20.164.083 37.291.271 38.061.418 1.326.254 1.347.241.4-.238-.78-.395-9.157-.531-38.052-.622l-37.052-.115-.272-28.685c-.15-15.776-.396-29.377-.548-30.223-.152-.847-.221 11.926-.155 28.384m78.291 32.127c5.278 1.266 11.896 6.855 14.945 12.622.464.877.843 1.394.843 1.15 0-3.893-11.752-14.271-15.97-14.103-.969.038-.958.058.182.331m-204.788.641c-.988.747-.339.739.976-.013.58-.332.748-.572.4-.573-.33-.001-.949.263-1.376.586m-3.609 1.976c-4.632 3.176-9.851 10-9.285 12.141.161.608.182.606.224-.022.177-2.65 5.413-9.309 9.333-11.871 1.379-.9 2.328-1.631 2.11-1.623-.219.008-1.29.627-2.382 1.375m224.187 12.065c-.004.741 1.165 3.205 1.182 2.492.009-.36-.253-1.17-.582-1.8-.328-.63-.598-.942-.6-.692m-234.347 2.392c-.28.855-.441 2.634-.357 3.954l.151 2.4.075-2.726c.042-1.5.268-3.085.502-3.522.234-.438.361-.991.282-1.228-.079-.238-.373.267-.653 1.122m235.696 5.354c0 2.53.065 3.565.145 2.3a44.671 44.671 0 0 0 0-4.6c-.08-1.265-.145-.23-.145 2.3m-.851 6.293c-.275.586-.493 1.346-.484 1.687.008.341.283.004.61-.75.708-1.631.595-2.474-.126-.937m-2.047 4.929c-1.54 2.801-5.891 7.373-8.687 9.129-1.081.679-1.817 1.237-1.634 1.241 2.327.054 13.005-11.388 11.776-12.618-.078-.077-.732.934-1.455 2.248M312.8 143.4c-.58.332-.748.572-.4.573.33.001.949-.263 1.376-.586.988-.747.339-.739-.976.013m-6.4 1.42c-.99.177-38.64.334-83.667.35-45.027.017-82.152.139-82.5.273-.648.248-1.015 30.695-.39 32.324.22.575 7.785.624 82.3.534l82.057-.099-81.893-.102-81.892-.102-.219-.899c-.12-.494-.169-7.739-.107-16.099l.111-15.2 84-.2c65.087-.155 84.18-.31 84.8-.688l.8-.488-.8.038c-.44.021-1.61.182-2.6.358m.8 33.939c1.21.168 2.707.515 3.326.773 1.656.688 2.265.565.874-.177-.66-.352-2.37-.699-3.8-.77l-2.6-.13 2.2.304m6.278 1.747c.482.272 1.652.919 2.599 1.439 3.128 1.718 7.411 6.312 9.152 9.818.864 1.74 1.571 2.945 1.571 2.679 0-.47-1.062-2.795-2.208-4.834-1.661-2.956-9.658-9.625-11.513-9.602-.264.003-.084.228.399.5m13.567 16.094c.138.66.386 2.19.551 3.4l.299 2.2.022-2c.012-1.1-.236-2.63-.551-3.4-.526-1.286-.553-1.302-.321-.2m-234.983 6.538c-.065 2.661 1.155 7.578 2.247 9.062l.589.8-.306-.8c-1.477-3.863-1.938-5.636-2.184-8.4l-.284-3.2-.062 2.538M94.8 213.6c0 .22.168.4.373.4s.48.315.61.7c.13.385.975 1.51 1.878 2.5 1.089 1.195 1.285 1.329.582.4a69.795 69.795 0 0 1-2.056-2.9c-1.013-1.523-1.387-1.82-1.387-1.1m5.004 5.6c.799 1.337 6.411 4.8 7.777 4.8.341 0-.519-.539-1.909-1.197-1.391-.658-3.361-1.872-4.378-2.699-1.017-.827-1.688-1.234-1.49-.904M111 224.876c.652.427 16.315.544 84.7.63l83.9.107v32.785l-84.4.102-84.4.103 84.5-.002 84.5-.001v-33.2l-83.6-.223c-45.98-.123-84.14-.359-84.8-.524-1.086-.273-1.124-.252-.4.223m-2.4 34.324c-.136.22-.642.421-1.124.446-.601.032-.671.101-.223.221.359.095 1.259-.091 2-.414 1.095-.478 1.183-.594.471-.62-.482-.018-.988.147-1.124.367m-4.274 1.614c-.811.428-1.589.964-1.729 1.19-.205.332 3.161-1.328 3.77-1.859.475-.414-.751-.013-2.041.669m-5.184 3.696c-1.242 1.149-2.757 2.81-3.368 3.69-.951 1.371-.84 1.302.773-.482 1.036-1.145 2.731-2.809 3.768-3.697 1.037-.889 1.705-1.613 1.485-1.609-.22.004-1.416.948-2.658 2.098m-5.056 6.301c-.707 1.132-2.09 4.891-2.057 5.589.016.33.373-.39.793-1.6.42-1.21 1.055-2.707 1.41-3.328.729-1.273.601-1.857-.146-.661M91.744 282c0 2.09.068 2.945.15 1.9a29.38 29.38 0 0 0 0-3.8c-.082-1.045-.15-.19-.15 1.9m235.771 2.4c-.157 1.21-.384 2.65-.505 3.2-.158.725-.047.63.406-.346.365-.787.574-2.117.504-3.2l-.12-1.854-.285 2.2m-235.5 2.8c-.026 1.089 2.27 6.518 3.364 7.953 2.484 3.259 10.171 9.43 10.873 8.728.084-.083-.743-.639-1.836-1.234-5.547-3.019-9.369-7.58-11.603-13.847-.431-1.21-.791-1.93-.798-1.6m234.069 3.5c-.403 1.347-.39 1.421.133.724.509-.678.822-2.224.45-2.224-.073 0-.335.675-.583 1.5m-1.682 3.404c-2.719 4.899-9.457 9.68-15.802 11.21-.612.148-.545.204.286.24 1.072.045 2.378-.418 5.914-2.099 1.811-.86 6.137-4.239 7.132-5.571.295-.394.849-1.024 1.232-1.4.896-.88 2.58-3.673 2.353-3.901-.096-.096-.598.589-1.115 1.521M108.2 304.71c1.45.611 5.123.694 39.2.882l37.6.208.2 30.8c.16 24.645.306 30.96.73 31.6l.53.8-.33-.8c-.181-.44-.38-14.558-.442-31.374-.078-21.363-.244-30.732-.549-31.1-.355-.428-7.244-.526-36.924-.526-31.17 0-36.774-.087-38.451-.596-2.627-.796-3.555-.734-1.564.106m153.513 1.19c-26.791.101-28.106.139-28.481.84-.399.746-.828 60.19-.432 59.794.11-.11.292-13.46.404-29.667.113-16.207.349-29.692.524-29.967.251-.393 7.718-.506 34.996-.53 19.072-.016 35.486-.173 36.476-.35 1.128-.2-1.41-.302-6.8-.273-4.73.026-21.239.095-36.687.153m-30.443 64.706c-.275.604-.418 1.18-.317 1.28.271.272 1.122-1.462.958-1.954-.078-.232-.366.071-.641.674m-44.47.785c0 2.139 7.955 11.395 9.8 11.402.22.001-.067-.312-.638-.696-2.986-2.007-6.16-5.607-7.754-8.797-.929-1.857-1.408-2.507-1.408-1.909m43.256 2.064c-.48 1.072-.47 1.103.162.484.371-.363.602-.879.513-1.145-.089-.267-.392.031-.675.661m-1.789 2.988c-1.336 1.86-6.45 6.357-7.228 6.357-.298 0-.765.27-1.039.6-1.07 1.289 1.02.131 4.776-2.646 1.246-.921 5.031-5.48 4.768-5.743-.079-.079-.654.565-1.277 1.432m-30.915 6.678c.421.683 4.507 2.483 5.598 2.466.467-.008-.205-.377-1.494-.82-1.289-.444-2.812-1.113-3.385-1.487-.634-.415-.915-.477-.719-.159m19.248 1.75c-1.91.73-1.933.756-.505.573.823-.106 1.898-.474 2.389-.818 1.122-.786.655-.725-1.884.245m-11.6 1.173c1.56.34 7.335.351 8.523.016.508-.143-1.472-.264-4.4-.269-2.928-.005-4.783.109-4.123.253" fill="#77bdd9"/><path d="M203 17.616c-1.4.725-1.45.794-.4.554 3.324-.762 4.613-.936 7-.943 1.43-.004 3.32.18 4.2.41 3.425.896 3.737.911 2.4.122-1.962-1.158-11.051-1.257-13.2-.143M198.545 19c-.127.33-.558.6-.959.6-.401 0-.999.27-1.329.6-.33.33-.753.6-.94.6-.186 0-.629.315-.983.7-.354.385-1.382 1.33-2.285 2.1-.903.77-1.643 1.585-1.645 1.811-.002.226-.319.701-.704 1.055-1.135 1.043-2.1 2.454-2.1 3.071 0 .316-.29.787-.643 1.045-.354.259-.577.818-.495 1.242.103.536.567-.071 1.523-1.995 1.933-3.886 6.082-8.002 10.015-9.937 2.382-1.171 2.771-1.477 1.887-1.483-.626-.005-1.213.253-1.342.591m20.192.041c.503.352 1.033.522 1.177.378.321-.321-.693-1.004-1.503-1.013-.38-.004-.264.222.326.635m3.07 1.624c4.712 3.151 8.527 8.078 10.325 13.335.112.33.219.118.236-.471.018-.59-.238-1.342-.568-1.672-.33-.33-.6-.87-.6-1.2 0-.33-.246-.846-.547-1.147-.301-.301-.67-.934-.82-1.407-.588-1.851-7.741-8.503-9.144-8.503-.261 0 .242.479 1.118 1.065M185.6 34.305c-.516.941-.615 5.401-.71 31.781l-.109 30.686-36.891.114c-34.235.106-36.976.164-38.09.812-1.413.821-.46.972 1.274.202.863-.383 9.635-.547 37.526-.7L185 97l.2-30.4c.158-24.075.309-30.592.725-31.321.289-.506.469-1.179.4-1.495-.08-.369-.339-.183-.725.521m47.043 2.095c.166.55.411 8.11.545 16.8l.242 15.8.085-16.024c.075-14.067.008-16.118-.545-16.8-.605-.746-.618-.737-.327.224M270.6 97.183c28.501.166 37.463.334 38.326.717 1.734.77 2.687.619 1.274-.202-1.118-.65-3.794-.699-39-.715l-37.8-.016 37.2.216M106 99c-.274.33-.814.6-1.2.6s-.926.27-1.2.6c-.274.33-.722.6-.995.6-.616 0-6.121 5.364-7.185 7-1.509 2.321-2.62 4.651-2.633 5.521-.007.484-.277 1.228-.6 1.655-.926 1.225-.882 91.709.046 92.848.623.765.627.764.3-.024-.717-1.724-.634-90.178.087-92.6 2.297-7.714 8.299-14.223 15.18-16.46.682-.222.644-.266-.251-.3-.578-.022-1.275.23-1.549.56m206.946.002c1.444.754 1.681.753 1.054-.002-.274-.33-.881-.599-1.349-.598-.738.003-.698.083.295.6m3.204 1.516c.853.485 2.349 1.557 3.325 2.382 2.46 2.08 2.69 1.882.347-.3-1.063-.99-2.156-1.8-2.429-1.8-.272 0-.719-.27-.993-.6-.274-.33-.791-.592-1.149-.582-.358.009.047.414.899.9m7.009 6.13c1.608 1.827 3.641 5.089 3.641 5.842 0 .214.258.956.573 1.65.315.693.654 1.62.753 2.06.129.57.195.473.228-.338.025-.626-.201-1.616-.503-2.2a167.457 167.457 0 0 1-1.609-3.262c-1.095-2.274-3.668-5.6-4.332-5.6-.208 0 .354.832 1.249 1.848m5.307 14.552c.014 1.991.046 2.07.338.834.177-.751.17-1.741-.016-2.2-.242-.597-.333-.21-.322 1.366m-.515 5.4c-.131.66-.379 1.56-.551 2-.291.742-.264.753.373.156.456-.428.641-1.098.551-2l-.135-1.356-.238 1.2m-2.124 5.562c-2.141 4.45-8.895 10.345-13.627 11.896-.732.24-.721.266.13.302 2.097.09 12.07-7.458 12.07-9.135 0-.234.159-.425.352-.425.45 0 2.589-4.199 2.394-4.7-.08-.206-.674.721-1.319 2.062m-16.368 12.512c-.151.151-1.036.398-1.966.55l-1.693.276 2.051.05c1.385.034 2.213-.145 2.549-.55.524-.632-.337-.93-.941-.326m-169.192 1.193c-.378.377-.322 31.028.058 31.625.245.386 18.265.515 83.672.6 45.848.059 82.829-.006 82.181-.145-.648-.139-25.928-.274-56.178-.3-30.25-.026-67.285-.167-82.3-.313l-27.3-.265v-31.067l82.7-.102 82.7-.102-82.633-.099c-45.449-.054-82.754.021-82.9.168M309.8 178.689c.44.109 1.029.383 1.31.611.28.228.635.289.788.135.418-.418-.76-1.028-1.898-.982-.824.033-.859.074-.2.236m3.2 1.182c.44.118 1.054.421 1.365.672.444.359.523.329.369-.143-.108-.33-.722-.632-1.365-.672-.734-.045-.872.008-.369.143m3.85 2.075c.993.63 3.099 2.471 4.678 4.092 1.58 1.621 2.872 2.788 2.872 2.595 0-.194-.63-.964-1.4-1.712-.77-.748-1.4-1.531-1.4-1.74 0-.21-.186-.381-.413-.381-.228 0-.903-.495-1.5-1.101-1.693-1.714-3.335-2.899-4.019-2.899-.344 0 .188.516 1.182 1.146m7.55 7.643c0 .2.175.472.389.604.536.331 1.473 2.38 2.29 5.007.993 3.188 1.299 89.921.326 92.249-.333.797-.605 1.794-.605 2.216 0 .422-.731 2.155-1.624 3.851-.893 1.696-1.253 2.634-.8 2.084 1.19-1.444 2.824-4.988 2.824-6.126 0-.537.27-1.2.6-1.474.888-.737.912-90.302.024-91.938-.317-.584-.685-1.737-.818-2.562-.133-.825-.4-1.5-.592-1.5-.193 0-.466-.525-.607-1.167-.233-1.063-1.407-2.101-1.407-1.244M92.842 209.4c-.052 1.335.402 2.531 1.054 2.781.463.178.512.11.197-.272-.232-.28-.601-1.139-.821-1.909-.23-.806-.413-1.061-.43-.6m1.604 4.113c-.025.501.224 1.016.554 1.142.33.127.6.472.6.768 0 .295.238.681.53.857.291.176.955.905 1.475 1.62.52.715 1.088 1.3 1.263 1.3.175 0 .949.613 1.72 1.362.771.749 2.214 1.755 3.205 2.235.991.48 1.904 1.037 2.028 1.238.125.201.801.344 1.503.318 1.174-.044 1.196-.068.276-.303-3.451-.882-11.029-6.821-11.799-9.247-.14-.442-.41-.803-.599-.803s-.426-.315-.526-.7c-.136-.52-.195-.465-.23.213m15.103 11.418c.395.482 1.123.655 2.6.619l2.051-.05-1.6-.311c-.88-.171-2.05-.45-2.6-.62-.9-.277-.945-.241-.451.362m45.919.969c22.698.057 59.958.057 82.8 0 22.843-.057 4.272-.104-41.268-.104s-64.229.047-41.532.104m-.168 32.4c22.825.057 60.175.057 83 0 22.825-.057 4.15-.104-41.5-.104s-64.325.047-41.5.104m-47.3.7c-.535.644-.011.842.62.234.209-.202.83-.447 1.38-.546.87-.156.837-.186-.251-.234-.688-.029-1.475.216-1.749.546m-3.8 1.333c-2.929 1.676-3.855 2.357-6 4.41-2.6 2.487-3.616 3.871-5.037 6.857-1.284 2.7-1.559 3.657-1.51 5.26l.054 1.74.289-1.8c.438-2.72 1.407-4.996 3.414-8.016 2.396-3.603 5.107-5.913 9.59-8.169 1.146-.577 1.658-.999 1.2-.988-.44.01-1.34.328-2 .706m-13.133 19.934c-.419.418-.312 3.258.133 3.533.247.152.4-.529.4-1.776 0-2.052-.056-2.235-.533-1.757m.586 6.733c-.027.88.221 2.116.549 2.746.329.63.598 1.35.599 1.6.005 2.177 6.821 9.783 10.297 11.49.934.458 1.799.998 1.923 1.199.125.201.619.365 1.099.365.613 0 .278-.314-1.123-1.052-3.696-1.948-6.749-4.568-9.725-8.348-1.082-1.375-2.847-5.684-3.276-8l-.296-1.6-.047 1.6m231.179 9.638c-.018.24-.788 1.185-1.711 2.1-.923.914-1.5 1.662-1.282 1.662.675 0 3.44-3.17 3.226-3.7-.116-.287-.215-.314-.233-.062m-4.83 4.76c-.514.547-1.75 1.39-2.747 1.872-.997.483-1.587.953-1.311 1.045.276.092.821-.121 1.211-.474.389-.353.886-.641 1.104-.641.535 0 3.132-2.342 2.878-2.596-.11-.11-.621.247-1.135.794M108 305c.274.33.971.593 1.549.584 1.006-.015.994-.04-.295-.6-1.691-.734-1.874-.731-1.254.016m203.2 0c-.884.505-.907.572-.2.573.44.001 1.149-.263 1.576-.586 1.031-.779-.007-.77-1.376.013m-163.4.899 37 .105v30.638c0 27.963.059 30.762.678 32.065.372.785.744 1.227.825.983.082-.245-.088-.861-.377-1.368-.417-.731-.567-7.297-.726-31.722l-.2-30.8-37.1-.003-37.1-.003 37 .105m157.4.121c-.99.177-17.404.334-36.476.35-19.072.017-34.76.165-34.862.33-.29.468 72.434-.104 74.538-.587l1.8-.413h-1.6c-.88 0-2.41.144-3.4.32M233.17 340c-.127 14.41-.371 26.74-.542 27.4-.306 1.178-.3 1.184.333.328.58-.784.634-3.524.542-27.4L233.4 313.8l-.23 26.2M232 369.638c0 .461-.256 1.316-.569 1.9a24.357 24.357 0 0 0-.815 1.662c-.952 2.311-4.1 6.213-6.439 7.981-6.198 4.684-11.337 5.84-20.777 4.673-.66-.082-.84-.065-.4.037.44.102 1.023.369 1.297.593.642.528 9.554.534 10.206.007.274-.22 1.252-.525 2.174-.677.922-.152 1.889-.532 2.149-.845.26-.313.727-.569 1.039-.569.499 0 2.151-1.009 3.6-2.2a53.53 53.53 0 0 1 1.837-1.375c.742-.536 1.787-1.581 2.323-2.323.536-.743 1.162-1.564 1.39-1.826.782-.897 2.185-3.37 2.185-3.852 0-.265.27-.751.6-1.081.547-.547.872-2.943.4-2.943-.11 0-.2.377-.2.838m-45.598 1.813c-.001.468.268 1.075.598 1.349.755.627.756.39.002-1.054-.517-.993-.597-1.033-.6-.295m1.206 2.278c-.016.673 2.029 3.771 3.144 4.766.636.566 1.222 1.19 1.302 1.385.234.57 4.011 3.32 4.561 3.32.275 0 .603.27.73.6.126.33.53.6.896.6.773 0-.439-1.014-2.403-2.011-1.565-.794-5.675-4.966-7.083-7.189-.627-.99-1.143-1.652-1.147-1.471m12.244 11.262c.128.335.604.609 1.057.609.924 0 .875-.092-.4-.755-.749-.39-.854-.366-.657.146" fill="#53acd3"/><path d="M203.6 18.352c-8.657 1.911-15.158 8.308-17.247 16.973-.702 2.914-.753 5.1-.753 32.22 0 22.096-.115 29.21-.48 29.575-.366.366-8.651.48-34.85.48-38.767 0-39.462.042-45.07 2.736-3.873 1.86-8.417 6.319-10.273 10.083-2.912 5.902-2.727 2.436-2.727 51.181v43.8l.866 2.6c2.359 7.079 6.027 11.505 12.075 14.57 5.013 2.54-.897 2.371 91.059 2.611l83.6.219v33.2l-84.8.215c-76.412.194-85 .278-86.825.858-19.566 6.213-22.112 32.212-4.185 42.728 4.872 2.858 3.626 2.779 44.23 2.79 27.783.007 36.534.123 36.9.489.365.365.48 7.59.48 30.074 0 36.562.069 36.955 7.743 44.287 6.272 5.991 21.409 7.906 26.657 3.372.33-.285.992-.638 1.472-.784 2.117-.644 7.248-6.344 8.866-9.85 2.377-5.15 2.462-6.451 2.462-37.669 0-18.235.14-27.824.414-28.336.403-.753 1.14-.775 26.7-.809 36.411-.048 48.751-.417 51.843-1.549 7.324-2.684 13.144-9.012 15.145-16.467l.898-3.349v-42.4c0-47.351.112-45.319-2.813-50.971-1.476-2.853-6.047-7.674-8.587-9.057-.77-.42-1.67-.96-2-1.201-.33-.241-1.86-.873-3.4-1.405l-2.8-.966-83.981-.108c-65.906-.085-84.049-.214-84.294-.6-.678-1.067-.383-32.184.308-32.449.348-.134 37.396-.243 82.329-.243 91.246 0 86.29.146 92.193-2.721 4.765-2.313 12.045-10.412 12.045-13.398 0-.324.269-1.105.598-1.735.983-1.886.822-9.628-.27-12.918-1.877-5.658-7.001-11.512-12.328-14.085-5.61-2.709-6.185-2.743-45.901-2.743-28.229 0-35.286-.102-35.629-.515-.292-.352-.475-9.962-.579-30.3-.165-32.474-.076-31.237-2.613-36.385-4.763-9.665-15.38-14.496-26.478-12.048m10.668.448c1.585.239 3.643.87 4.6 1.41.953.537 2.14 1.156 2.638 1.376 1.532.675 7.006 6.478 7.461 7.909.145.458.527 1.051.848 1.318.322.267.585.873.585 1.347s.315 1.307.7 1.851c.649.918.709 3.219.822 31.847.12 30.168.141 30.875.915 31.575.745.674 3.042.734 38.478 1.004 37.228.284 39.324.357 40.874 1.421.434.298 1.087.542 1.451.542.364 0 .886.27 1.16.6.274.33.816.6 1.204.6 1.144 0 7.405 6.338 8.579 8.685.574 1.146 1.218 2.192 1.43 2.323.213.132.387.734.387 1.339s.264 1.449.587 1.877c.837 1.106.837 9.646 0 10.752-.323.428-.587 1.299-.587 1.937 0 .639-.36 1.618-.8 2.178-.44.559-.8 1.263-.8 1.563 0 .3-.18.546-.4.546-.22 0-.4.254-.4.564 0 .309-1.498 2.064-3.329 3.9-3.056 3.062-4.096 3.768-8.471 5.752-2.919 1.324-8.149 1.42-90.4 1.654-53.309.152-82.175.373-82.5.631-.817.649-.716 32.422.105 33.103.481.399 18.008.54 84.7.683 71.418.152 84.285.265 85.355.746.694.312 1.707.567 2.251.567.545 0 1.215.27 1.489.6.274.33.728.6 1.009.6 1.554 0 8.937 6.74 9.571 8.738.151.474.442.862.647.862.205 0 .373.213.373.474 0 .26.346 1.205.769 2.1 1.25 2.642 1.303 4.261 1.504 45.826.194 40.369.019 47.34-1.264 50.2-1.723 3.839-2.517 5.158-4.257 7.073-1.063 1.17-1.937 2.262-1.942 2.427-.006.165-.216.3-.469.3-.252 0-1.227.63-2.167 1.4-.94.77-1.971 1.4-2.292 1.4-.321 0-.792.251-1.047.558-.255.307-1.132.683-1.949.836-.817.153-1.739.486-2.047.742-.415.343-10.26.49-37.8.565-20.482.056-37.621.188-38.088.295-1.689.385-1.728 1.084-1.842 32.804-.098 27.459-.173 30.516-.774 31.6-.365.66-1.153 2.238-1.751 3.508-.598 1.269-1.511 2.709-2.029 3.2-.517.49-.944 1.036-.948 1.211-.008.359-1.491 1.775-2.809 2.681-.48.33-1.243.915-1.697 1.3-.453.385-1.072.7-1.375.7-.303 0-.648.252-.766.561-.119.308-.878.684-1.688.835-.809.152-1.725.484-2.033.74-.976.806-12.764.607-14.239-.241-.66-.38-1.605-.691-2.1-.693-.495-.001-.9-.18-.9-.397 0-.217-.635-.66-1.411-.984-1.698-.709-7.788-6.552-7.789-7.472 0-.358-.27-.875-.6-1.149-.33-.274-.601-.701-.602-.949-.002-.248-.279-.981-.617-1.628-1.342-2.574-1.505-5.902-1.743-35.703-.157-19.599-.379-29.821-.652-30.094-.277-.277-12.522-.458-37-.549-37.752-.14-40.528-.257-42.046-1.777-.275-.275-.736-.5-1.024-.5-1.339 0-7.641-5.36-9.205-7.828-1.26-1.991-2.512-4.721-2.524-5.505-.007-.477-.277-1.216-.6-1.643-.837-1.108-.837-9.74 0-10.848.323-.427.593-1.206.6-1.732.012-.898 1.325-3.978 2.213-5.19 1.202-1.642 6.143-6.466 7-6.834.55-.237 1.63-.812 2.4-1.279 3.622-2.195-.849-2.085 90.161-2.22 61.521-.091 84.107-.245 84.505-.575.444-.369.524-3.468.438-17.099L280.2 225l-80.8-.281c-88.265-.307-89.105-.328-93.4-2.414-4.191-2.035-7.868-5.209-9.46-8.165-.397-.737-.861-1.34-1.031-1.34-.17 0-.31-.225-.311-.5-.002-.275-.289-1.04-.64-1.7-1.395-2.63-1.487-5.243-1.653-47-.196-49.122-.271-47.896 3.334-54.493.902-1.65 6.956-7.507 7.759-7.507.387 0 .912-.251 1.167-.558.255-.307 1.074-.673 1.82-.813.746-.14 1.415-.43 1.487-.644.275-.825 10.09-1.141 42.724-1.375 21.894-.156 33.938-.384 34.2-.646.26-.26.489-10.812.642-29.684.158-19.416.394-30.137.7-31.824.469-2.579 2.006-6.456 2.56-6.456.166 0 .302-.187.302-.416 0-.528 1.638-2.88 2.3-3.304.275-.176.5-.581.5-.9 0-.319.225-.585.5-.591.275-.006 1.03-.552 1.679-1.212.648-.661 1.593-1.305 2.1-1.433.506-.127.921-.377.921-.556 0-.179.675-.543 1.5-.809s1.686-.629 1.913-.808c.227-.178 1.92-.513 3.763-.744 1.843-.231 3.457-.529 3.587-.661.131-.132.867-.141 1.637-.02.77.122 2.691.416 4.268.654" fill="#b0d8e9"/></g></svg>